<?xml version="1.0" encoding="utf-8"?>
<!-- Generator: Adobe Illustrator 24.1.2, SVG Export Plug-In . SVG Version: 6.00 Build 0)  -->
<svg version="1.1" id="Layer_1" xmlns="http://www.w3.org/2000/svg" xmlns:xlink="http://www.w3.org/1999/xlink" x="0px" y="0px"
	 viewBox="0 0 792 612" style="enable-background:new 0 0 792 612;" xml:space="preserve">
<style type="text/css">
	.st0{fill-rule:evenodd;clip-rule:evenodd;fill:url(#SVGID_1_);}
	.st1{fill:none;stroke:#20405D;stroke-width:2.4508;stroke-miterlimit:10;}
	.st2{fill:#FFFCDD;}
	.st3{fill:#20405D;}
	.st4{fill-rule:evenodd;clip-rule:evenodd;fill:url(#SVGID_2_);}
</style>
<g>
	<g>
		<linearGradient id="SVGID_1_" gradientUnits="userSpaceOnUse" x1="330.3326" y1="90.2815" x2="330.3326" y2="22.5076">
			<stop  offset="0" style="stop-color:#FBB03A"/>
			<stop  offset="1" style="stop-color:#FFF200"/>
		</linearGradient>
		<path class="st0" d="M329.9,79.9c-12.1-1-22.5-14.6-13.3-24c-3.8,8.7,4.6,7.2,2.9,1.9c-3-9.1-3.8-18.1,6.1-27.7
			c-4.2,16.1,18.4-2.9,3-12.1c4.4,0.7,15.1,7.2,11.7,17.8c-4.3,13.4,3.5,9.1-0.1,3.1c14.6,18.1,6.2,38.3-9.8,50.2
			c19.5-19.7-10.5-26.1,0-38.8C323.3,51.7,320.8,67,329.9,79.9z"/>
		<line class="st1" x1="330.3" y1="91.5" x2="330.3" y2="125.8"/>
		<rect x="308.3" y="106.5" class="st2" width="44.1" height="245.1"/>
		<path class="st3" d="M267.9,316.1c5.1,7,13.7,12.9,24.4,17.1h75.9c10.7-4.2,19.3-10.1,24.4-17.1H267.9L267.9,316.1z M294.4,336.8
			c2.5,9.8,6.5,18.3,11.4,24.8h49c4.9-6.6,8.9-15.1,11.4-24.8H294.4z M306.4,365.2v102.7h48V365.2H306.4z M306.4,471.5
			c-23.8,20-27.4,83.7-27.4,83.7h102.6c0,0-3.6-63.7-27.4-83.7H306.4L306.4,471.5z M277.7,558.7c-15.1,4.2-1.6,10.8-46.8,20.2h198.7
			c-45.2-9.4-31.6-16-46.8-20.2H277.7L277.7,558.7z"/>
	</g>
	<g>
		<linearGradient id="SVGID_2_" gradientUnits="userSpaceOnUse" x1="459.5923" y1="90.2815" x2="459.5923" y2="22.5076">
			<stop  offset="0" style="stop-color:#FBB03A"/>
			<stop  offset="1" style="stop-color:#FFF200"/>
		</linearGradient>
		<path class="st4" d="M459.1,79.9c-12.1-1-22.5-14.6-13.3-24c-3.8,8.7,4.6,7.2,2.9,1.9c-3-9.1-3.8-18.1,6.1-27.7
			c-4.2,16.1,18.4-2.9,3-12.1c4.4,0.7,15.1,7.2,11.7,17.8c-4.3,13.4,3.5,9.1-0.1,3.1c14.6,18.1,6.2,38.3-9.8,50.2
			c19.5-19.7-10.5-26.1,0-38.8C452.6,51.7,450.1,67,459.1,79.9z"/>
		<line class="st1" x1="459.6" y1="91.5" x2="459.6" y2="125.8"/>
		<rect x="437.5" y="106.5" class="st2" width="44.1" height="245.1"/>
		<path class="st3" d="M397.2,316.1c5.1,7,13.7,12.9,24.4,17.1h75.9c10.7-4.2,19.3-10.1,24.4-17.1H397.2L397.2,316.1z M423.6,336.8
			c2.5,9.8,6.5,18.3,11.4,24.8h49c4.9-6.6,8.9-15.1,11.4-24.8H423.6z M435.6,365.2v102.7h48V365.2H435.6z M435.7,471.5
			c-23.8,20-27.4,83.7-27.4,83.7h102.6c0,0-3.6-63.7-27.4-83.7H435.7L435.7,471.5z M407,558.7c-15.1,4.2-1.6,10.8-46.8,20.2H559
			c-45.2-9.4-31.6-16-46.8-20.2H407L407,558.7z"/>
	</g>
</g>
</svg>
